<?xml version="1.0" encoding="UTF-8"?>
<svg width="410" height="404" viewBox="0 0 410 404" fill="none" xmlns="http://www.w3.org/2000/svg">
  <path d="M399.641 59.524C401.552 39.3492 382.769 23.3162 362.947 28.9339L52.842 119.77C33.0198 125.388 25.97 150.239 40.4061 164.348L235.464 356.982C249.9 371.09 274.751 363.944 280.369 344.122L399.641 59.524Z" fill="url(#paint0_linear)"/>
  <path d="M292.75 13.59C299.325 -3.50701 321.675 -3.50701 328.25 13.59L408.42 222.938C414.995 240.035 400.32 258.147 382.17 255.186L310 243.25L237.83 255.186C219.68 258.147 205.005 240.035 211.58 222.938L292.75 13.59Z" fill="url(#paint1_linear)"/>
  <defs>
    <linearGradient id="paint0_linear" x1="6.00017" y1="32.9999" x2="235" y2="344" gradientUnits="userSpaceOnUse">
      <stop stop-color="#41D1FF"/>
      <stop offset="1" stop-color="#BD34FE"/>
    </linearGradient>
    <linearGradient id="paint1_linear" x1="139" y1="-39.5" x2="330" y2="348.5" gradientUnits="userSpaceOnUse">
      <stop stop-color="#FFEA83"/>
      <stop offset="0.0833333" stop-color="#FFDD35"/>
      <stop offset="1" stop-color="#FFA800"/>
    </linearGradient>
  </defs>
</svg>
